# xmcd
#
# Track frame offsets:
#	150
#	27998
#	39946
#	61217
#	88780
#	103864
#	130807
#	148663
#	169796
#	193311
#	215692
#	232490
#	255448
#	275544
#
# Disc length: 3999 seconds
# Revision: 1
# Processed by: cddbd v1.5.2PL0 Copyright (c) Steve Scherf et al.
# Submitted via: dBpowerAMP V12.0
#
DISCID=d50f9d0e
DTITLE=Latvian Blues Band - Unreal
DYEAR=2009
DGENRE=Blues
TTITLE0=Evil
TTITLE1=Baby Let Me Hold Your Hand
TTITLE2=Confused
TTITLE3=Feel Like Cryin'
TTITLE4=Unreal
TTITLE5=Wake Up
TTITLE6=Let the Door Hit You
TTITLE7=Nut Shuffle
TTITLE8=Live Your Own Life
TTITLE9=5 Minutes Too Late
TTITLE10=Take That
TTITLE11=No More Doggin'
TTITLE12=Lost
TTITLE13=Are You Ready
EXTD=
EXTT0=
EXTT1=
EXTT2=
EXTT3=
EXTT4=
EXTT5=
EXTT6=
EXTT7=
EXTT8=
EXTT9=
EXTT10=
EXTT11=
EXTT12=
EXTT13=
PLAYORDER=
